<svg xmlns="http://www.w3.org/2000/svg" width="512" height="512" viewBox="0 0 120 120">
  <defs>
    <linearGradient id="bg" x1="0%" y1="0%" x2="100%" y2="100%">
      <stop offset="0%" stop-color="#1a0d2e"/>
      <stop offset="100%" stop-color="#0D0D1A"/>
    </linearGradient>
    <linearGradient id="bL" x1="0%" y1="0%" x2="100%" y2="100%">
      <stop offset="0%" stop-color="#fff5d4"/><stop offset="50%" stop-color="#f5d98a"/>
      <stop offset="100%" stop-color="#8a6d0f"/>
    </linearGradient>
    <linearGradient id="bR" x1="100%" y1="0%" x2="0%" y2="100%">
      <stop offset="0%" stop-color="#fff5d4"/><stop offset="50%" stop-color="#f5d98a"/>
      <stop offset="100%" stop-color="#8a6d0f"/>
    </linearGradient>
    <radialGradient id="gem" cx="50%" cy="50%" r="50%">
      <stop offset="0%" stop-color="#f3e8ff"/><stop offset="50%" stop-color="#a855f7"/>
      <stop offset="100%" stop-color="#581c87"/>
    </radialGradient>
  </defs>
  <!-- Solid full-bleed background for maskable safe zone -->
  <rect width="120" height="120" fill="url(#bg)"/>
  <!-- Inner artwork inside 80% safe zone (inset 12 → ~60% scale of central content) -->
  <g transform="translate(24 24) scale(0.6)">
    <circle cx="60" cy="62" r="42" fill="#9333ea" opacity="0.1"/>
    <g><polygon points="26,20 32,20 92,84 86,90" fill="url(#bL)"/>
      <polygon points="88,88 95,82 92,95" fill="#d4af37"/>
      <rect x="13" y="36" width="28" height="6" rx="2" fill="#9333ea" transform="rotate(45 27 39)"/>
      <circle cx="20" cy="16" r="6" fill="#d4af37"/></g>
    <g><polygon points="94,20 88,20 28,84 34,90" fill="url(#bR)"/>
      <polygon points="32,88 25,82 28,95" fill="#d4af37"/>
      <rect x="79" y="36" width="28" height="6" rx="2" fill="#9333ea" transform="rotate(-45 93 39)"/>
      <circle cx="100" cy="16" r="6" fill="#d4af37"/></g>
    <circle cx="60" cy="55" r="12" fill="#0D0D1A"/>
    <circle cx="60" cy="55" r="9.5" fill="url(#gem)"/>
    <circle cx="57" cy="52" r="2.4" fill="white" opacity="0.85"/>
  </g>
</svg>
