<svg xmlns="http://www.w3.org/2000/svg" width="512" height="512" viewBox="0 0 120 120">
  <defs>
    <linearGradient id="bg" x1="0%" y1="0%" x2="100%" y2="100%">
      <stop offset="0%" stop-color="#1a0d2e"/>
      <stop offset="100%" stop-color="#0D0D1A"/>
    </linearGradient>
    <linearGradient id="bL" x1="0%" y1="0%" x2="100%" y2="100%">
      <stop offset="0%" stop-color="#fff5d4"/><stop offset="35%" stop-color="#f5d98a"/>
      <stop offset="70%" stop-color="#d4af37"/><stop offset="100%" stop-color="#8a6d0f"/>
    </linearGradient>
    <linearGradient id="bR" x1="100%" y1="0%" x2="0%" y2="100%">
      <stop offset="0%" stop-color="#fff5d4"/><stop offset="35%" stop-color="#f5d98a"/>
      <stop offset="70%" stop-color="#d4af37"/><stop offset="100%" stop-color="#8a6d0f"/>
    </linearGradient>
    <radialGradient id="gem" cx="50%" cy="50%" r="50%">
      <stop offset="0%" stop-color="#f3e8ff"/><stop offset="45%" stop-color="#a855f7"/>
      <stop offset="100%" stop-color="#581c87"/>
    </radialGradient>
  </defs>
  <rect width="120" height="120" rx="24" fill="url(#bg)"/>
  <circle cx="60" cy="62" r="42" fill="#9333ea" opacity="0.08"/>
  <g><polygon points="26,20 32,20 92,84 86,90" fill="url(#bL)" stroke="#8a6d0f" stroke-width="0.5"/>
    <polygon points="88,88 95,82 92,95" fill="#d4af37"/>
    <rect x="13" y="36" width="28" height="6" rx="2" fill="#9333ea" stroke="#6b21a8" stroke-width="0.6" transform="rotate(45 27 39)"/>
    <rect x="17" y="22" width="11" height="14" rx="2" fill="#3b1d59" stroke="#6b21a8" stroke-width="0.5" transform="rotate(45 22.5 29)"/>
    <circle cx="20" cy="16" r="5.5" fill="#d4af37" stroke="#8a6d0f" stroke-width="0.7"/>
    <circle cx="20" cy="16" r="2" fill="#fff5d4" opacity="0.9"/></g>
  <g><polygon points="94,20 88,20 28,84 34,90" fill="url(#bR)" stroke="#8a6d0f" stroke-width="0.5"/>
    <polygon points="32,88 25,82 28,95" fill="#d4af37"/>
    <rect x="79" y="36" width="28" height="6" rx="2" fill="#9333ea" stroke="#6b21a8" stroke-width="0.6" transform="rotate(-45 93 39)"/>
    <rect x="92" y="22" width="11" height="14" rx="2" fill="#3b1d59" stroke="#6b21a8" stroke-width="0.5" transform="rotate(-45 97.5 29)"/>
    <circle cx="100" cy="16" r="5.5" fill="#d4af37" stroke="#8a6d0f" stroke-width="0.7"/>
    <circle cx="100" cy="16" r="2" fill="#fff5d4" opacity="0.9"/></g>
  <circle cx="60" cy="55" r="12" fill="#0D0D1A"/>
  <circle cx="60" cy="55" r="9.5" fill="url(#gem)"/>
  <polygon points="60,47 67,55 60,63 53,55" fill="#c084fc" opacity="0.55"/>
  <circle cx="57" cy="52" r="2.4" fill="white" opacity="0.85"/>
</svg>
